# xmcd
#
# Track frame offsets:
#	150
#	16058
#	34459
#	57159
#	73147
#	92023
#	114077
#	131810
#	148974
#	153133
#	169047
#	190499
#	206302
#	223778
#	255298
#	302020
#
# Disc length: 4036 seconds
#
# Revision: 1
# Processed by: cddbd v1.5.1PL0 Copyright (c) Steve Scherf et al.
# Submitted via: audiograbber 1.83.01
#
DISCID=df0fc210
DTITLE=Jon Randall - Walking among the living
DYEAR=2005
DGENRE=Country
TTITLE0=Baby won't you come home
TTITLE1=In the country
TTITLE2=North Carolina Moon
TTITLE3=Somebody else
TTITLE4=Long way down
TTITLE5=Whiskey lullaby
TTITLE6=Austin
TTITLE7=I shouldn't do this
TTITLE8=Reprise for somebody else
TTITLE9=Coming back for more
TTITLE10=Lonely for awhile
TTITLE11=Walking among the living
TTITLE12=No Southern Comfort
TTITLE13=My life
TTITLE14=Data Track
TTITLE15=Data Track
EXTD=
EXTT0=
EXTT1=
EXTT2=
EXTT3=
EXTT4=
EXTT5=
EXTT6=
EXTT7=
EXTT8=
EXTT9=
EXTT10=
EXTT11=
EXTT12=
EXTT13=
EXTT14=
EXTT15=
PLAYORDER=
